# xmcd
#
# Track frame offsets:
# 150
# 14737
# 28605
# 45405
# 60342
# 73360
# 89927
# 109845
# 132242
# 145542
# 156000
# 171885
# 190085
# 206467
# 219417
# 236557
# 248805
# 264122
#
# Disc length: 4082 seconds
#
#
# Revision: 0
# Processed by: cddbd v1.5PL3 Copyright (c) Steve Scherf et al.
# Submitted via: FreeRIP 2.60 
#
DISCID=fd0ff012
DTITLE=Various Artist - It Must Be Something in the Water
DYEAR=2001
DGENRE=Traditional
TTITLE0=Ring of Fire
TTITLE1=The Blues Dont Care Who's Got'Em
TTITLE2=Sweet Dreams
TTITLE3=Sunny Side of the Mountain
TTITLE4=It Rains Just the same in Missouri
TTITLE5=The Times They are Still Changin'
TTITLE6=Stealin'
TTITLE7=Hickory Wind
TTITLE8=I wonder where you are tonight
TTITLE9=Mister Sandman
TTITLE10=The Rains the only thing thats going down
TTITLE11=Long Balck Veil
TTITLE12=Possum up a gum Stump
TTITLE13=Could You Love Me One More Time
TTITLE14=Southern Train
TTITLE15=There's a Place Where Love Grows Wild
TTITLE16=New Delhi Freight Train
TTITLE17=Who Will Watch the Homeplace?
EXTD=
EXTT0=
EXTT1=
EXTT2=Sandra Ford Warren
EXTT3=
EXTT4=
EXTT5=
EXTT6=Ryan and Reggie Harris
EXTT7=
EXTT8=
EXTT9=
EXTT10=
EXTT11=
EXTT12=
EXTT13=
EXTT14=Clarence Greene
EXTT15=
EXTT16=
EXTT17=
PLAYORDER=
